<svg width="29" height="28" viewBox="0 0 29 28" fill="none" xmlns="http://www.w3.org/2000/svg">
<path fill-rule="evenodd" clip-rule="evenodd" d="M11.4551 1.45825C11.9383 1.45825 12.3301 1.85 12.3301 2.33325V3.80396C13.1109 3.79158 13.9784 3.79159 14.9422 3.79159H14.968C15.9318 3.79159 16.7993 3.79158 17.5801 3.80396V2.33325C17.5801 1.85 17.9718 1.45825 18.4551 1.45825C18.9383 1.45825 19.3301 1.85 19.3301 2.33325V3.86576C21.094 3.97635 22.4491 4.26216 23.5648 5.07276C24.1343 5.48653 24.6351 5.98736 25.0489 6.55686C25.9844 7.84446 26.2209 9.45094 26.2958 11.6366C26.3301 12.6367 26.3301 13.8003 26.3301 15.1537V15.1794C26.3301 16.5329 26.3301 17.6965 26.2958 18.6965C26.2209 20.8822 25.9844 22.4887 25.0489 23.7763C24.6351 24.3458 24.1343 24.8466 23.5648 25.2604C22.2772 26.1959 20.6707 26.4324 18.485 26.5073C17.4849 26.5416 16.3212 26.5416 14.9677 26.5416H14.9023C12.7596 26.5416 11.0801 26.5416 9.74763 26.3972C8.38784 26.2499 7.28606 25.9439 6.34535 25.2604C5.77585 24.8466 5.27502 24.3458 4.86126 23.7763C4.17779 22.8356 3.87175 21.7338 3.72443 20.374C3.58006 19.0415 3.58007 17.362 3.58008 15.2194L3.58008 15.1537C3.58008 13.8003 3.58008 12.6367 3.61434 11.6366C3.68923 9.45094 3.92576 7.84446 4.86126 6.55686C5.27502 5.98736 5.77585 5.48653 6.34535 5.07276C7.46106 4.26216 8.81617 3.97635 10.5801 3.86576V2.33325C10.5801 1.85 10.9718 1.45825 11.4551 1.45825ZM10.5801 5.62004C8.99102 5.72933 8.07382 5.98008 7.37398 6.48854C6.95304 6.79437 6.58286 7.16455 6.27704 7.58548C5.76857 8.28532 5.51782 9.20252 5.40854 10.7916H24.5016C24.3923 9.20252 24.1416 8.28532 23.6331 7.58548C23.3273 7.16455 22.9571 6.79437 22.5362 6.48854C21.8363 5.98008 20.9191 5.72933 19.3301 5.62004V5.83325C19.3301 6.3165 18.9383 6.70825 18.4551 6.70825C17.9718 6.70825 17.5801 6.3165 17.5801 5.83325V5.55417C16.8106 5.54164 15.9439 5.54158 14.9551 5.54158C13.9663 5.54158 13.0996 5.54164 12.3301 5.55417V5.83325C12.3301 6.3165 11.9383 6.70825 11.4551 6.70825C10.9718 6.70825 10.5801 6.3165 10.5801 5.83325V5.62004ZM24.5675 12.5416H5.34266C5.33014 13.3111 5.33008 14.1778 5.33008 15.1666C5.33008 17.3734 5.33128 18.9583 5.46425 20.1855C5.59544 21.3964 5.84643 22.155 6.27704 22.7477C6.58286 23.1686 6.95304 23.5388 7.37398 23.8446C7.96665 24.2752 8.72523 24.5262 9.93613 24.6574C11.1634 24.7904 12.7482 24.7916 14.9551 24.7916C15.9448 24.7916 16.8122 24.7915 17.5822 24.779C17.5873 24.2252 17.6045 23.8175 17.6627 23.4505C18.1173 20.5801 20.3686 18.3288 23.239 17.8742C23.606 17.816 24.0137 17.7988 24.5675 17.7937C24.58 17.0237 24.5801 16.1563 24.5801 15.1666C24.5801 14.1778 24.58 13.3111 24.5675 12.5416ZM24.5014 19.5448C24.029 19.5503 23.752 19.5647 23.5128 19.6026C21.3911 19.9387 19.7272 21.6026 19.3911 23.7243C19.3532 23.9635 19.3388 24.2405 19.3333 24.7129C20.9204 24.6035 21.8368 24.3527 22.5362 23.8446C22.9571 23.5388 23.3273 23.1686 23.6331 22.7477C24.1412 22.0483 24.392 21.1319 24.5014 19.5448Z" fill="#0074E0"/>
<path fill-rule="evenodd" clip-rule="evenodd" d="M24.5675 12.5416H5.34266C5.33014 13.3111 5.33008 14.1777 5.33008 15.1666C5.33008 17.3734 5.33128 18.9582 5.46425 20.1855C5.59544 21.3964 5.84643 22.155 6.27704 22.7477C6.58286 23.1686 6.95304 23.5388 7.37398 23.8446C7.96665 24.2752 8.72523 24.5262 9.93613 24.6574C11.1634 24.7904 12.7482 24.7916 14.9551 24.7916C15.9448 24.7916 16.8122 24.7915 17.5822 24.7789C17.5873 24.2252 17.6045 23.8175 17.6627 23.4505C18.1173 20.58 20.3686 18.3288 23.239 17.8741C23.606 17.816 24.0137 17.7988 24.5675 17.7937C24.58 17.0236 24.5801 16.1563 24.5801 15.1666C24.5801 14.1777 24.58 13.3111 24.5675 12.5416ZM24.5014 19.5448C24.029 19.5503 23.752 19.5647 23.5128 19.6026C21.3911 19.9386 19.7272 21.6026 19.3911 23.7242C19.3532 23.9634 19.3388 24.2404 19.3333 24.7129C20.9204 24.6035 21.8368 24.3527 22.5362 23.8446C22.9571 23.5388 23.3273 23.1686 23.6331 22.7477C24.1412 22.0483 24.392 21.1319 24.5014 19.5448Z" fill="#0074E0"/>
<path fill-rule="evenodd" clip-rule="evenodd" d="M24.5001 19.5448C24.0277 19.5503 23.7507 19.5647 23.5115 19.6026C21.3898 19.9386 19.7259 21.6026 19.3898 23.7242C19.3519 23.9634 19.3375 24.2404 19.332 24.7129C20.9191 24.6035 21.8355 24.3527 22.5349 23.8446C22.9558 23.5388 23.326 23.1686 23.6318 22.7477C24.1399 22.0483 24.3907 21.1319 24.5001 19.5448Z" fill="white"/>
<path d="M10.5801 16.3333C10.5801 15.85 10.9718 15.4583 11.4551 15.4583H18.4551C18.9383 15.4583 19.3301 15.85 19.3301 16.3333C19.3301 16.8165 18.9383 17.2083 18.4551 17.2083H11.4551C10.9718 17.2083 10.5801 16.8165 10.5801 16.3333Z" fill="white"/>
</svg>
