<svg width="29" height="28" viewBox="0 0 29 28" fill="none" xmlns="http://www.w3.org/2000/svg">
<path fill-rule="evenodd" clip-rule="evenodd" d="M7.46248 5.79307C4.3512 8.05355 2.79556 9.18379 2.18457 10.8533C2.13555 10.9872 2.09147 11.1229 2.0524 11.2601C1.56538 12.9699 2.15958 14.7987 3.34799 18.4562C4.53639 22.1137 5.1306 23.9425 6.5296 25.0395C6.64183 25.1275 6.75724 25.2113 6.87562 25.2909C8.35124 26.2824 10.2741 26.2824 14.1199 26.2824C17.9656 26.2824 19.8885 26.2824 21.3641 25.2909C21.4825 25.2113 21.5979 25.1275 21.7102 25.0395C23.1092 23.9425 23.7034 22.1137 24.8918 18.4562C26.0802 14.7987 26.6744 12.9699 26.1874 11.2601C26.1483 11.1229 26.1042 10.9872 26.0552 10.8533C25.4442 9.18379 23.8886 8.05356 20.7773 5.79308C17.666 3.5326 16.1103 2.40235 14.3337 2.33717C14.1912 2.33194 14.0485 2.33194 13.906 2.33717C12.1294 2.40235 10.5738 3.53259 7.46248 5.79307ZM11.7865 19.9145C11.3033 19.9145 10.9115 20.3063 10.9115 20.7895C10.9115 21.2728 11.3033 21.6645 11.7865 21.6645H16.4532C16.9365 21.6645 17.3282 21.2728 17.3282 20.7895C17.3282 20.3063 16.9365 19.9145 16.4532 19.9145H11.7865Z" fill="#0074E0"/>
</svg>
