<svg width="29" height="28" viewBox="0 0 29 28" fill="none" xmlns="http://www.w3.org/2000/svg">
<path d="M17.9643 2.63347C17.2577 2.625 16.4794 2.625 15.6242 2.625H13.2343C11.0917 2.62499 9.41216 2.62498 8.07967 2.76935C6.71987 2.91667 5.6181 3.22271 4.67738 3.90618C4.10788 4.31995 3.60705 4.82077 3.19329 5.39027C3.01291 5.63854 2.85725 5.90023 2.72338 6.17804C2.29146 7.07442 2.09894 8.11424 2.00516 9.35555C1.9121 10.5873 1.91211 12.0992 1.91211 13.9661V14.0528C1.9121 16.1954 1.91209 17.875 2.05646 19.2074C2.20378 20.5672 2.50982 21.669 3.19329 22.6097C3.60705 23.1792 4.10788 23.6801 4.67739 24.0938C5.6181 24.7773 6.71987 25.0833 8.07967 25.2306C9.41213 25.375 11.0916 25.375 13.2342 25.375H15.6733C17.8158 25.375 19.4954 25.375 20.8279 25.2306C22.1877 25.0833 23.2895 24.7773 24.2302 24.0938C24.7997 23.6801 25.3005 23.1792 25.7143 22.6097C26.3977 21.669 26.7038 20.5672 26.8511 19.2074C26.9955 17.875 26.9955 16.1955 26.9954 14.0529V13.9961C26.9954 13.1288 26.9954 12.3406 26.9866 11.6259C26.9806 11.1427 26.5841 10.7559 26.1009 10.7618C25.6176 10.7678 25.2308 11.1644 25.2367 11.6476C25.2454 12.3503 25.2454 13.1283 25.2454 14C25.2454 16.2068 25.2442 17.7917 25.1113 19.0189C24.9801 20.2298 24.7291 20.9884 24.2985 21.5811C23.9927 22.002 23.6225 22.3722 23.2015 22.678C22.6089 23.1086 21.8503 23.3596 20.6394 23.4908C19.4121 23.6238 17.8273 23.625 15.6204 23.625H13.2871C11.0803 23.625 9.49544 23.6238 8.26816 23.4908C7.05727 23.3596 6.29868 23.1086 5.70601 22.678C5.28507 22.3722 4.9149 22.002 4.60907 21.5811C4.17847 20.9884 3.92747 20.2298 3.79628 19.0189C3.66331 17.7917 3.66211 16.2068 3.66211 14C3.66211 12.0923 3.66268 10.6458 3.75019 9.48738C3.78748 8.99373 3.8398 8.56754 3.91028 8.19394L5.63279 9.91645C7.53712 11.8208 9.0295 13.3132 10.3505 14.3211C11.7026 15.3527 12.9774 15.9588 14.4538 15.9588C16.7065 15.9588 18.5222 14.5406 20.8926 12.2684C21.2415 11.934 21.2532 11.3801 20.9188 11.0313C20.5844 10.6824 20.0305 10.6707 19.6816 11.0051C17.2573 13.3289 15.9158 14.2088 14.4538 14.2088C13.5139 14.2088 12.6084 13.8426 11.412 12.9298C10.1954 12.0015 8.78485 10.5936 6.82292 8.6317L4.60951 6.41829C4.91525 5.99761 5.28527 5.62764 5.70601 5.32196C6.29868 4.89136 7.05727 4.64036 8.26816 4.50917C9.49544 4.3762 11.0803 4.375 13.2871 4.375H15.6204C16.4799 4.375 17.2482 4.37501 17.9433 4.38334C18.4265 4.38914 18.8229 4.00211 18.8287 3.5189C18.8345 3.03568 18.4475 2.63926 17.9643 2.63347Z" fill="#272A2D"/>
<path fill-rule="evenodd" clip-rule="evenodd" d="M23.7865 2.625C22.0145 2.625 20.5781 4.06142 20.5781 5.83333C20.5781 7.60525 22.0145 9.04167 23.7865 9.04167C25.5584 9.04167 26.9948 7.60525 26.9948 5.83333C26.9948 4.06142 25.5584 2.625 23.7865 2.625ZM22.3281 5.83333C22.3281 5.02792 22.981 4.375 23.7865 4.375C24.5919 4.375 25.2448 5.02792 25.2448 5.83333C25.2448 6.63875 24.5919 7.29167 23.7865 7.29167C22.981 7.29167 22.3281 6.63875 22.3281 5.83333Z" fill="#0074E0"/>
</svg>
